<?xml version="1.0" encoding="utf-8"?>
<!-- Generator: Adobe Illustrator 21.1.0, SVG Export Plug-In . SVG Version: 6.00 Build 0)  -->
<svg version="1.1" id="Layer_1" xmlns="http://www.w3.org/2000/svg" xmlns:xlink="http://www.w3.org/1999/xlink" x="0px" y="0px"
	 viewBox="0 0 256 97" style="enable-background:new 0 0 256 97;" xml:space="preserve">
<style type="text/css">
	.st0{fill:#82C341;}
	.st1{fill:#8B8A8D;}
</style>
<g id="Layer_1_1_">
</g>
<g id="Layer_2">
	<g>
		<g>
			<g>
				<g>
					<g>
						<g>
							<g>
								<path class="st0" d="M169.4,43.7c0,10.7-8.1,19.4-18.7,19.4c-10.5,0-18.7-8.8-18.7-19.4c0-10.8,8.1-19.6,18.7-19.6
									C161.3,24.1,169.4,32.9,169.4,43.7 M163.3,43.7c0-7.6-5.6-13.8-12.6-13.8c-6.9,0-12.5,6.2-12.5,13.8
									c0,7.4,5.6,13.5,12.5,13.5C157.6,57.2,163.3,51.1,163.3,43.7"/>
								<path class="st0" d="M108.9,24.2c-10.4,0-18.5,8.5-18.5,19.3v26.4l0,0c0,1.6,1.3,2.9,2.9,2.9c1.6,0,2.9-1.3,2.9-2.9l0,0h0
									V56.6c3,3.7,7.6,6.2,12.7,6.2c10.2,0,18.3-8.3,18.3-19.2C127.3,32.5,119.1,24.2,108.9,24.2 M108.9,57.2
									c-6.8,0-12.4-6.1-12.4-13.7s5.7-13.7,12.4-13.7c6.8,0,12.4,6,12.4,13.7C121.3,51.2,115.7,57.2,108.9,57.2"/>
								<path class="st0" d="M42.6,27.2c0-1.7-1.3-3-3-3c-1.7,0-3,1.3-3,3c0,0.1,0,0.2,0,0.2h0v25.2L9,25v0
									c-0.5-0.5-1.3-0.8-2.1-0.8c-1.7,0-3,1.3-3,3c0,0.8,0.3,1.4,0.7,1.9l0,0L37.5,62c0.6,0.6,1.3,0.9,2.1,0.9
									c0.4,0,0.8-0.1,1.1-0.2c1.1-0.5,1.9-1.6,1.9-2.8V27.4h0C42.6,27.3,42.6,27.3,42.6,27.2"/>
								<path class="st0" d="M84.5,43.6c0-10.9-8-19.4-18.5-19.4c-10.2,0-18.6,8.3-18.6,19.4c0,11,8.2,19.4,18.4,19.4
									c5.2,0,9.9-2.7,12.7-6.7v2.8c0,1.6,1.3,2.9,2.9,2.9c1.6,0,2.9-1.3,2.9-2.9h0L84.5,43.6L84.5,43.6z M66,57.3
									c-6.9,0-12.5-5.9-12.5-13.7S59.2,29.8,66,29.8c6.7,0,12.5,6.2,12.5,13.8C78.5,51.2,72.9,57.3,66,57.3"/>
								<path class="st0" d="M202.4,24.1h-9c-10.5,0-19,8.5-19,19v16.8c0,1.8,1.5,3.3,3.3,3.3c1.8,0,3.3-1.5,3.3-3.3l0,0l0,0V43.1
									c0-6.9,5.6-12.4,12.4-12.4h4.2L202.4,24.1z"/>
							</g>
							<path class="st1" d="M144.4,43.6c0-3.9,2.8-7,6.3-7s6.3,3.1,6.3,7s-2.8,7-6.3,7C147.2,50.6,144.4,47.5,144.4,43.6"/>
						</g>
					</g>
				</g>
				<path class="st1" d="M206.2,24.1l-4.7,6.6h8.9v29.7c0,0,0.5,2.7,3.1,2.7c0,0,2.7-0.1,3.1-3V30.8H227c0,0,2.7-0.1,2.7-3.3
					c0,0,0.2-3.3-3-3.3h-10c0,0-1.4-12.3,8.9-10.8c0,0,2.9,0.5,2.9-2.9c0,0,0.1-2.4-2.9-2.9c0,0-15.9-2.8-15.2,16.5L206.2,24.1
					L206.2,24.1z"/>
				<path class="st1" d="M233.1,26.6v33.7c0,0,0,2.8,3.1,2.8c0,0,3.1,0.3,3.1-2.7V26.6c0,0,0-2.5-3-2.5
					C236.3,24.1,233.1,24,233.1,26.6z"/>
			</g>
		</g>
		<g>
			<path class="st1" d="M65.5,78.8c0,0.3-0.2,0.5-0.6,0.5h-2.6v7.4c0,0.3-0.3,0.6-0.6,0.6c-0.3,0-0.6-0.3-0.6-0.6v-7.4h-2.6
				c-0.3,0-0.5-0.2-0.5-0.5s0.2-0.6,0.5-0.6h6.4C65.2,78.2,65.5,78.5,65.5,78.8z"/>
			<path class="st1" d="M72.5,83v3.7c0,0.3-0.3,0.6-0.6,0.6c-0.3,0-0.6-0.3-0.6-0.6v-3.5c0-1-0.4-1.6-1.4-1.6
				c-0.9,0-1.6,0.6-2.1,1.3v3.9c0,0.3-0.3,0.6-0.6,0.6c-0.3,0-0.6-0.3-0.6-0.6v-8.4c0-0.3,0.3-0.6,0.6-0.6c0.3,0,0.6,0.3,0.6,0.6
				v3.4c0.5-0.6,1.3-1.2,2.4-1.2C71.6,80.5,72.5,81.6,72.5,83z"/>
			<path class="st1" d="M75.8,78.6c0,0.4-0.3,0.6-0.6,0.6c0,0,0,0-0.1,0c-0.4,0-0.6-0.3-0.6-0.6c0,0,0,0,0,0c0-0.4,0.3-0.6,0.6-0.6
				c0,0,0,0,0.1,0C75.5,78,75.8,78.3,75.8,78.6C75.8,78.6,75.8,78.6,75.8,78.6z M75.7,81.1v5.5c0,0.3-0.3,0.6-0.6,0.6
				s-0.6-0.3-0.6-0.6v-5.5c0-0.3,0.3-0.6,0.6-0.6C75.4,80.6,75.7,80.8,75.7,81.1z"/>
			<path class="st1" d="M83.6,83v3.7c0,0.3-0.3,0.6-0.6,0.6c-0.3,0-0.6-0.3-0.6-0.6v-3.5c0-1-0.4-1.6-1.4-1.6
				c-0.9,0-1.6,0.6-2.1,1.3v3.9c0,0.3-0.3,0.6-0.6,0.6s-0.6-0.3-0.6-0.6v-5.5c0-0.3,0.3-0.6,0.6-0.6s0.6,0.3,0.6,0.6v0.5
				c0.5-0.6,1.3-1.2,2.4-1.2C82.8,80.5,83.6,81.6,83.6,83z"/>
			<path class="st1" d="M91.2,86.7c0,0.3-0.2,0.6-0.6,0.6c-0.2,0-0.4-0.1-0.5-0.2l-2.2-3l-1.1,1v1.7c0,0.3-0.3,0.6-0.6,0.6
				c-0.3,0-0.6-0.3-0.6-0.6v-8.4c0-0.3,0.3-0.6,0.6-0.6s0.6,0.3,0.6,0.6v5.3l3.1-2.8c0.1-0.1,0.2-0.2,0.4-0.2c0.5,0,0.6,0.3,0.6,0.6
				c0,0.1,0,0.3-0.2,0.5l-1.9,1.7l2.3,3.1C91.1,86.4,91.2,86.6,91.2,86.7z"/>
			<path class="st1" d="M97.4,78.7v8c0,0.3-0.3,0.6-0.6,0.6s-0.6-0.3-0.6-0.6v-8c0-0.3,0.3-0.6,0.6-0.6
				C97.1,78.1,97.4,78.4,97.4,78.7z"/>
			<path class="st1" d="M103.2,86.6c0,0.2-0.1,0.4-0.3,0.5c-0.3,0.2-0.6,0.2-1.1,0.2c-0.6,0-1.9-0.1-1.9-1.7v-4H99
				c-0.2,0-0.2-0.1-0.2-0.2c0-0.1,0-0.2,0.1-0.2l1.7-1.7c0,0,0.1-0.1,0.2-0.1c0.2,0,0.2,0.1,0.2,0.3v1h1.4c0.3,0,0.5,0.2,0.5,0.5
				s-0.2,0.5-0.5,0.5h-1.4v3.9c0,0.8,0.5,0.8,0.8,0.8c0.4,0,0.6-0.1,0.8-0.1C102.9,86.2,103.2,86.4,103.2,86.6z"/>
			<path class="st1" d="M105.9,86.4L105.9,86.4c0,0.5-0.3,0.8-0.7,0.8H105c-0.4,0-0.7-0.3-0.7-0.7v-0.1c0-0.4,0.3-0.7,0.7-0.7h0.1
				C105.6,85.7,105.9,86,105.9,86.4z"/>
			<path class="st1" d="M121.3,79v7.7c0,0.3-0.3,0.6-0.6,0.6c-0.3,0-0.6-0.3-0.6-0.6v-7.3l-3,7.3c-0.2,0.3-0.5,0.5-0.8,0.5
				c-0.4,0-0.7-0.2-0.8-0.5l-3-7.3v7.3c0,0.3-0.3,0.6-0.6,0.6c-0.3,0-0.6-0.3-0.6-0.6V79c0-0.5,0.4-0.8,0.8-0.8h0.4
				c0.3,0,0.6,0.2,0.8,0.5l2.9,7.3l2.9-7.3c0.1-0.3,0.5-0.5,0.8-0.5h0.4C120.9,78.1,121.3,78.5,121.3,79z"/>
			<path class="st1" d="M124.8,78.6c0,0.4-0.3,0.6-0.6,0.6c0,0,0,0-0.1,0c-0.4,0-0.6-0.3-0.6-0.6c0,0,0,0,0,0c0-0.4,0.3-0.6,0.6-0.6
				c0,0,0,0,0.1,0C124.5,78,124.8,78.3,124.8,78.6C124.8,78.6,124.8,78.6,124.8,78.6z M124.7,81.1v5.5c0,0.3-0.3,0.6-0.6,0.6
				c-0.3,0-0.6-0.3-0.6-0.6v-5.5c0-0.3,0.3-0.6,0.6-0.6C124.4,80.6,124.7,80.8,124.7,81.1z"/>
			<path class="st1" d="M131.9,86.3c0.1,0.1,0.2,0.3,0.2,0.4c0,0.3-0.2,0.6-0.6,0.6c-0.2,0-0.3-0.1-0.5-0.2l-1.8-2.2l-1.7,2.2
				c-0.1,0.2-0.3,0.3-0.5,0.3c-0.3,0-0.6-0.2-0.6-0.6c0-0.1,0-0.2,0.1-0.4l2-2.3l-2-2.4c-0.1-0.1-0.2-0.2-0.2-0.4
				c0-0.4,0.3-0.6,0.6-0.6c0.2,0,0.4,0.1,0.5,0.2l1.8,2.2l1.8-2.2c0.1-0.2,0.3-0.2,0.5-0.2c0.3,0,0.6,0.2,0.6,0.6
				c0,0.1,0,0.3-0.1,0.4l-2,2.4L131.9,86.3z"/>
			<path class="st1" d="M138.5,78.7v8c0,0.3-0.3,0.6-0.6,0.6s-0.6-0.3-0.6-0.6v-8c0-0.3,0.3-0.6,0.6-0.6
				C138.2,78.1,138.5,78.4,138.5,78.7z"/>
			<path class="st1" d="M144.3,86.6c0,0.2-0.1,0.4-0.3,0.5c-0.3,0.2-0.6,0.2-1.1,0.2c-0.6,0-1.9-0.1-1.9-1.7v-4h-0.9
				c-0.2,0-0.2-0.1-0.2-0.2c0-0.1,0-0.2,0.1-0.2l1.7-1.7c0,0,0.1-0.1,0.2-0.1c0.2,0,0.2,0.1,0.2,0.3v1h1.4c0.3,0,0.5,0.2,0.5,0.5
				s-0.2,0.5-0.5,0.5h-1.4v3.9c0,0.8,0.5,0.8,0.8,0.8c0.4,0,0.6-0.1,0.8-0.1C144.1,86.2,144.3,86.4,144.3,86.6z"/>
			<path class="st1" d="M147,86.4L147,86.4c0,0.5-0.3,0.8-0.7,0.8h-0.1c-0.4,0-0.7-0.3-0.7-0.7v-0.1c0-0.4,0.3-0.7,0.7-0.7h0.1
				C146.7,85.7,147,86,147,86.4z"/>
			<path class="st1" d="M155.7,86.1l3-7.5c0.1-0.2,0.3-0.4,0.6-0.4c0.4,0,0.6,0.2,0.6,0.6c0,0.1,0,0.2,0,0.2l-3.2,7.7
				c-0.2,0.4-0.5,0.6-0.8,0.6h-0.3c-0.4,0-0.6-0.2-0.8-0.6l-3.2-7.7c0-0.1,0-0.2,0-0.2c0-0.3,0.2-0.6,0.6-0.6c0.2,0,0.5,0.2,0.6,0.4
				L155.7,86.1z"/>
			<path class="st1" d="M165.6,83v3.6c0,0.3-0.3,0.6-0.6,0.6s-0.6-0.3-0.6-0.6v-0.3c-0.5,0.5-1.2,1-2.4,1c-1.1,0-2.1-0.7-2.1-1.9
				c0-1.2,0.9-2.1,3-2.1h1.6v-0.1c0-1.1-0.6-1.6-1.7-1.6c-0.7,0-1.3,0.2-1.7,0.3c0,0-0.1,0-0.2,0c-0.3,0-0.5-0.2-0.5-0.5
				c0-0.2,0.1-0.4,0.3-0.5c0.6-0.3,1.3-0.5,2.2-0.5C164.9,80.5,165.6,81.8,165.6,83z M164.5,85.3v-1.1h-1.4c-1.2,0-1.9,0.3-1.9,1
				c0,0.6,0.3,1,1.4,1C163.3,86.3,164.1,85.8,164.5,85.3z"/>
			<path class="st1" d="M168.8,86.3v3.3c0,0.3-0.3,0.6-0.6,0.6c-0.3,0-0.6-0.3-0.6-0.6v-8.5c0-0.3,0.3-0.6,0.6-0.6
				c0.3,0,0.6,0.3,0.6,0.6v0.3c0.6-0.6,1.3-1,2.2-1c1.6,0,3.1,1.2,3.1,3.4s-1.6,3.4-3.1,3.4C170.1,87.3,169.4,87,168.8,86.3z
				 M168.8,82.5v2.7c0.5,0.6,1.2,0.9,2,0.9c1.2,0,2.1-0.8,2.1-2.3c0-1.5-0.9-2.3-2.1-2.3C170,81.6,169.3,82,168.8,82.5z"/>
			<path class="st1" d="M181.3,86.3c0,0.2-0.2,0.4-0.3,0.5c-0.6,0.3-1.1,0.6-2.2,0.6c-2.1,0-3.3-1.3-3.3-3.4c0-1.7,0.9-3.4,3.1-3.4
				c2,0,3.1,1.5,3.1,3.3c0,0.3-0.2,0.6-0.6,0.6h-4.4c0.1,1.2,0.9,1.9,2.2,1.9c0.8,0,1.3-0.2,1.7-0.4c0.1,0,0.2,0,0.2,0
				C181.1,85.8,181.3,86,181.3,86.3z M176.6,83.4h3.8c-0.1-1.3-1.1-1.9-1.9-1.9S176.6,82.1,176.6,83.4z"/>
			<path class="st1" d="M187.8,78.7v8c0,0.3-0.3,0.6-0.6,0.6c-0.3,0-0.6-0.3-0.6-0.6v-8c0-0.3,0.3-0.6,0.6-0.6
				C187.6,78.1,187.8,78.4,187.8,78.7z"/>
			<path class="st1" d="M193.6,86.6c0,0.2-0.1,0.4-0.3,0.5c-0.3,0.2-0.6,0.2-1.1,0.2c-0.6,0-1.9-0.1-1.9-1.7v-4h-0.9
				c-0.2,0-0.2-0.1-0.2-0.2c0-0.1,0-0.2,0.1-0.2l1.7-1.7c0,0,0.1-0.1,0.2-0.1c0.2,0,0.2,0.1,0.2,0.3v1h1.4c0.3,0,0.5,0.2,0.5,0.5
				s-0.2,0.5-0.5,0.5h-1.4v3.9c0,0.8,0.5,0.8,0.8,0.8c0.4,0,0.6-0.1,0.8-0.1C193.4,86.2,193.6,86.4,193.6,86.6z"/>
			<path class="st1" d="M196.4,86.4L196.4,86.4c0,0.5-0.3,0.8-0.7,0.8h-0.1c-0.4,0-0.7-0.3-0.7-0.7v-0.1c0-0.4,0.3-0.7,0.7-0.7h0.1
				C196,85.7,196.4,86,196.4,86.4z"/>
			<path class="st1" d="M203,80.3c0,1.5-1.2,2.7-2.7,2.7c-1.5,0-2.7-1.2-2.7-2.7c0-1.5,1.2-2.7,2.7-2.7
				C201.8,77.6,203,78.8,203,80.3z M202.6,80.3c0-1.3-1-2.3-2.3-2.3c-1.3,0-2.3,1-2.3,2.3c0,1.3,1,2.3,2.3,2.3
				S202.6,81.6,202.6,80.3z M201.1,80.4c0.2,0.1,0.5,0.3,0.5,0.9v0.2c0,0.2-0.1,0.3-0.3,0.3c-0.2,0-0.3-0.1-0.3-0.3v-0.1
				c0-0.3,0-0.8-0.5-0.8h-0.8v0.9c0,0.2-0.1,0.3-0.3,0.3c-0.2,0-0.3-0.1-0.3-0.3v-2.4c0-0.2,0.2-0.3,0.3-0.3h0.9
				c0.8,0,1.2,0.4,1.2,0.9C201.6,80.1,201.4,80.3,201.1,80.4z M201.1,79.7c0-0.3-0.2-0.5-0.7-0.5h-0.7v1h0.7
				C200.8,80.2,201.1,80,201.1,79.7z"/>
		</g>
	</g>
	<g>
		<path class="st1" d="M247.7,23.9c0.8,0,1.5,0.2,2.2,0.6c0.7,0.4,1.3,0.9,1.7,1.7c0.4,0.7,0.6,1.5,0.6,2.3s-0.2,1.6-0.6,2.3
			s-0.9,1.3-1.7,1.7c-0.7,0.4-1.5,0.6-2.3,0.6c-0.8,0-1.6-0.2-2.3-0.6c-0.7-0.4-1.3-0.9-1.7-1.7s-0.6-1.5-0.6-2.3s0.2-1.6,0.6-2.3
			c0.4-0.7,1-1.3,1.7-1.7C246.2,24.1,247,23.9,247.7,23.9z M247.8,24.8c-0.6,0-1.2,0.2-1.8,0.5c-0.6,0.3-1,0.8-1.4,1.3
			s-0.5,1.2-0.5,1.8c0,0.6,0.2,1.3,0.5,1.8c0.3,0.6,0.8,1,1.4,1.4c0.6,0.3,1.2,0.5,1.8,0.5c0.6,0,1.3-0.2,1.8-0.5
			c0.6-0.3,1-0.8,1.4-1.4c0.3-0.6,0.5-1.2,0.5-1.8s-0.2-1.3-0.5-1.8s-0.8-1-1.4-1.3C249.1,25,248.4,24.8,247.8,24.8z M245.7,30.9
			v-4.8h1c0.9,0,1.4,0,1.6,0c0.3,0,0.6,0.1,0.8,0.2s0.3,0.3,0.5,0.5s0.2,0.5,0.2,0.7c0,0.3-0.1,0.6-0.3,0.9
			c-0.2,0.3-0.5,0.4-0.9,0.5c0.2,0,0.3,0.1,0.3,0.2c0.1,0.1,0.2,0.2,0.3,0.4c0,0,0.2,0.2,0.3,0.6l0.6,1h-1.2l-0.4-0.8
			c-0.3-0.5-0.5-0.9-0.7-1c-0.2-0.1-0.4-0.2-0.7-0.2h-0.3v2L245.7,30.9L245.7,30.9z M246.7,28.1h0.4c0.6,0,0.9,0,1.1-0.1
			c0.2,0,0.2-0.1,0.3-0.2c0.1-0.1,0.1-0.2,0.1-0.4s0-0.3-0.1-0.3c-0.1-0.1-0.2-0.2-0.3-0.2c-0.2,0-0.5-0.1-1.1-0.1h-0.4V28.1z"/>
	</g>
</g>
</svg>
